<svg aria-hidden="true" style="position: absolute; width: 0; height: 0; overflow: hidden;" version="1.1" xmlns="http://www.w3.org/2000/svg" xmlns:xlink="http://www.w3.org/1999/xlink">
<defs>
<symbol id="icon-internet-svgrepo-com" viewBox="0 0 32 32">
<path d="M27.966 26.605c2.507-2.825 4.034-6.54 4.034-10.605 0-4.23-1.653-8.079-4.343-10.943 0 0 0-0.001 0-0.001-0.002-0.003-0.006-0.004-0.007-0.007-2.802-2.979-6.728-4.886-11.095-5.035l-0.001-0.001-0.312-0.008c-0.081-0.003-0.161-0.006-0.242-0.006s-0.162 0.003-0.242 0.006l-0.311 0.008-0.001 0.001c-4.367 0.15-8.293 2.056-11.095 5.035-0.002 0.003-0.006 0.004-0.007 0.007 0 0 0 0.001-0.001 0.001-2.691 2.863-4.344 6.712-4.344 10.942 0 4.066 1.527 7.78 4.034 10.605 0.003 0.005 0.003 0.010 0.007 0.015 0.010 0.014 0.024 0.020 0.035 0.033 2.817 3.149 6.859 5.178 11.37 5.332l0.001 0.001 0.311 0.008c0.081 0.002 0.162 0.005 0.243 0.005s0.162-0.003 0.242-0.006l0.311-0.008 0.001-0.001c4.516-0.155 8.562-2.188 11.379-5.343 0.007-0.009 0.019-0.012 0.025-0.022 0.004-0.004 0.004-0.010 0.008-0.015zM1.117 16.552h6.622c0.062 2.339 0.519 4.611 1.332 6.74-1.569 0.568-3.069 1.329-4.475 2.279-2.067-2.459-3.354-5.593-3.48-9.020zM4.898 6.082c1.373 0.893 2.834 1.608 4.359 2.142-0.934 2.266-1.45 4.709-1.517 7.225h-6.622c0.132-3.59 1.538-6.859 3.781-9.367zM30.883 15.448h-6.622c-0.067-2.516-0.584-4.959-1.517-7.225 1.524-0.534 2.986-1.249 4.359-2.142 2.243 2.508 3.649 5.777 3.781 9.367zM15.448 8.255c-1.595-0.045-3.161-0.283-4.674-0.708 1.118-2.294 2.697-4.365 4.674-6.089v6.797zM15.448 9.359v6.089h-6.605c0.068-2.399 0.571-4.726 1.471-6.883 1.658 0.481 3.38 0.746 5.134 0.793zM16.552 9.359c1.754-0.047 3.476-0.312 5.135-0.793 0.9 2.157 1.403 4.484 1.471 6.883h-6.606v-6.089zM16.552 8.255v-6.797c1.976 1.724 3.555 3.795 4.674 6.089-1.513 0.425-3.079 0.663-4.674 0.708zM22.295 7.212c-1.060-2.221-2.531-4.244-4.352-5.978 3.231 0.423 6.138 1.884 8.377 4.038-1.271 0.807-2.62 1.455-4.025 1.94zM9.705 7.212c-1.405-0.485-2.754-1.134-4.024-1.94 2.238-2.154 5.146-3.615 8.377-4.038-1.822 1.734-3.293 3.757-4.353 5.978zM8.843 16.552h6.605v5.538c-1.825 0.049-3.612 0.333-5.33 0.85-0.776-2.017-1.213-4.171-1.275-6.388zM15.448 23.193v7.348c-2.115-1.846-3.774-4.088-4.902-6.575 1.582-0.466 3.225-0.726 4.902-0.773zM16.552 30.541v-7.348c1.677 0.047 3.32 0.307 4.902 0.772-1.128 2.488-2.786 4.73-4.902 6.575zM16.552 22.090v-5.538h6.605c-0.062 2.217-0.499 4.372-1.276 6.389-1.718-0.518-3.505-0.802-5.33-0.851zM24.26 16.552h6.622c-0.126 3.426-1.412 6.561-3.48 9.020-1.406-0.95-2.906-1.711-4.475-2.279 0.814-2.129 1.27-4.402 1.332-6.74zM5.347 26.398c1.305-0.867 2.695-1.565 4.147-2.086 1.073 2.406 2.614 4.598 4.563 6.454-3.394-0.444-6.431-2.033-8.711-4.368zM17.943 30.766c1.95-1.856 3.49-4.048 4.563-6.454 1.452 0.521 2.841 1.219 4.147 2.086-2.28 2.335-5.317 3.924-8.711 4.368z"></path>
</symbol>
<symbol id="icon-location-point-svgrepo-com" viewBox="0 0 32 32">
<path d="M16 4.853c-3.846 0-6.975 3.129-6.975 6.975s3.129 6.975 6.975 6.975 6.975-3.129 6.975-6.975-3.129-6.975-6.975-6.975zM16 16.926c-2.811 0-5.099-2.287-5.099-5.099s2.287-5.099 5.099-5.099 5.099 2.287 5.099 5.099-2.287 5.099-5.099 5.099z"></path>
<path d="M16 0c-6.522 0-11.827 5.306-11.827 11.827 0 3.761 3.154 9.365 5.034 12.37 1.237 1.977 2.566 3.859 3.743 5.299 1.889 2.311 2.565 2.504 3.050 2.504 0.493 0 1.131-0.193 3.014-2.505 1.179-1.448 2.509-3.329 3.745-5.296 1.893-3.013 5.069-8.626 5.069-12.372 0-6.522-5.306-11.827-11.828-11.827zM21.458 22.738c-2.426 3.938-4.653 6.598-5.469 7.278-0.821-0.658-3.012-3.256-5.471-7.265-2.84-4.629-4.469-8.611-4.469-10.923-0-5.487 4.464-9.951 9.951-9.951s9.951 4.464 9.951 9.951c0 2.299-1.638 6.276-4.493 10.911z"></path>
</symbol>
<symbol id="icon-email-svgrepo-com-1" viewBox="0 0 32 32">
<path d="M28.091 5.138h-24.183c-2.155 0-3.909 1.754-3.909 3.909v13.907c0 2.155 1.754 3.909 3.909 3.909h24.183c2.155 0 3.909-1.754 3.909-3.909v-13.906c0-2.156-1.753-3.909-3.909-3.909zM26.181 7.688l-10.181 6.559-10.181-6.559h20.363zM28.091 24.313h-24.183c-0.749 0-1.359-0.61-1.359-1.359v-13.835l12.663 8.143c0.017 0.011 0.035 0.018 0.053 0.028s0.037 0.020 0.056 0.029c0.098 0.051 0.199 0.091 0.303 0.118 0.011 0.003 0.021 0.004 0.032 0.007 0.113 0.027 0.228 0.043 0.343 0.043 0 0 0.001 0 0.001 0s0.001 0 0.002 0c0.115 0 0.23-0.016 0.343-0.043 0.011-0.003 0.021-0.004 0.032-0.007 0.103-0.027 0.204-0.068 0.303-0.118 0.019-0.009 0.037-0.019 0.056-0.029s0.036-0.017 0.053-0.028l12.663-8.143v13.834c-0 0.749-0.61 1.359-1.36 1.359z"></path>
</symbol>
<symbol id="icon-phone-call-svgrepo-com" viewBox="0 0 32 32">
<path d="M25.29 19.823c-0.655-0.682-1.445-1.047-2.283-1.047-0.831 0-1.628 0.358-2.31 1.040l-2.134 2.127c-0.176-0.095-0.351-0.182-0.52-0.27-0.243-0.122-0.473-0.236-0.669-0.358-1.999-1.27-3.816-2.924-5.558-5.065-0.844-1.067-1.412-1.965-1.824-2.877 0.554-0.507 1.067-1.033 1.567-1.54 0.189-0.189 0.378-0.385 0.567-0.574 1.418-1.418 1.418-3.255 0-4.674l-1.844-1.844c-0.209-0.209-0.425-0.425-0.628-0.642-0.405-0.419-0.831-0.851-1.27-1.256-0.655-0.648-1.439-0.993-2.263-0.993s-1.621 0.344-2.296 0.993c-0.007 0.007-0.007 0.007-0.014 0.014l-2.296 2.317c-0.865 0.865-1.358 1.918-1.466 3.141-0.162 1.972 0.419 3.809 0.865 5.011 1.094 2.951 2.729 5.687 5.167 8.618 2.958 3.532 6.517 6.322 10.583 8.287 1.553 0.736 3.627 1.607 5.943 1.756 0.142 0.007 0.29 0.014 0.425 0.014 1.56 0 2.87-0.561 3.897-1.675 0.007-0.014 0.020-0.020 0.027-0.034 0.351-0.425 0.756-0.81 1.182-1.222 0.29-0.277 0.588-0.567 0.878-0.871 0.669-0.696 1.020-1.506 1.020-2.337 0-0.837-0.358-1.641-1.040-2.317l-3.708-3.721zM27.708 26.935c-0.007 0-0.007 0.007 0 0-0.263 0.284-0.534 0.54-0.824 0.824-0.439 0.419-0.885 0.858-1.303 1.351-0.682 0.729-1.486 1.074-2.539 1.074-0.101 0-0.209 0-0.311-0.007-2.006-0.128-3.87-0.912-5.268-1.58-3.823-1.851-7.179-4.478-9.969-7.807-2.303-2.776-3.843-5.342-4.863-8.098-0.628-1.682-0.858-2.992-0.756-4.228 0.068-0.79 0.371-1.445 0.932-2.006l2.303-2.303c0.331-0.311 0.682-0.48 1.027-0.48 0.425 0 0.77 0.257 0.986 0.473 0.007 0.007 0.013 0.013 0.020 0.020 0.412 0.385 0.804 0.783 1.216 1.209 0.209 0.216 0.425 0.432 0.642 0.655l1.844 1.844c0.716 0.716 0.716 1.378 0 2.094-0.196 0.196-0.385 0.392-0.581 0.581-0.567 0.581-1.108 1.121-1.695 1.648-0.014 0.014-0.027 0.020-0.034 0.034-0.581 0.581-0.473 1.148-0.351 1.533 0.007 0.020 0.014 0.041 0.020 0.061 0.48 1.162 1.155 2.256 2.181 3.559l0.007 0.007c1.864 2.296 3.829 4.086 5.997 5.457 0.277 0.176 0.561 0.317 0.831 0.453 0.243 0.122 0.473 0.236 0.669 0.358 0.027 0.014 0.054 0.034 0.081 0.047 0.23 0.115 0.446 0.169 0.669 0.169 0.561 0 0.912-0.351 1.027-0.466l2.31-2.31c0.23-0.23 0.594-0.507 1.020-0.507 0.419 0 0.763 0.263 0.973 0.493 0.007 0.007 0.007 0.007 0.014 0.014l3.721 3.721c0.696 0.689 0.696 1.398 0.007 2.114z"></path>
<path d="M17.294 7.612c1.77 0.297 3.377 1.135 4.66 2.418s2.114 2.891 2.418 4.66c0.074 0.446 0.459 0.756 0.898 0.756 0.054 0 0.101-0.007 0.155-0.014 0.5-0.081 0.831-0.554 0.75-1.054-0.365-2.141-1.378-4.093-2.924-5.639s-3.498-2.56-5.639-2.924c-0.5-0.081-0.966 0.25-1.054 0.743s0.236 0.973 0.736 1.054z"></path>
<path d="M31.963 14.116c-0.601-3.525-2.263-6.734-4.815-9.287s-5.761-4.214-9.287-4.815c-0.493-0.088-0.959 0.25-1.047 0.743-0.081 0.5 0.25 0.966 0.75 1.054 3.147 0.534 6.018 2.026 8.3 4.302 2.283 2.283 3.769 5.153 4.302 8.3 0.074 0.446 0.459 0.756 0.898 0.756 0.054 0 0.101-0.007 0.155-0.014 0.493-0.074 0.831-0.547 0.743-1.040z"></path>
</symbol>
<symbol id="icon-hamburger" viewBox="0 0 47 32">
<path fill="#e5e5e5" style="fill: var(--color1, #e5e5e5)" d="M0 0h46.545v32h-46.545v-32z"></path>
<path fill="#fff" style="fill: var(--color2, #fff)" d="M-552.727-34.909h622.545v7211.636h-622.545v-7211.636z"></path>
<path fill="#fff" style="fill: var(--color2, #fff)" d="M-552.727-34.909h622.545v101.818h-622.545v-101.818z"></path>
<path fill="none" stroke="#e7e9fc" style="stroke: var(--color3, #e7e9fc)" stroke-linejoin="miter" stroke-linecap="butt" stroke-miterlimit="4" stroke-width="1.4545" d="M-552-34.182h621.091v100.364h-621.091v-100.364z"></path>
<path fill="none" stroke="#2e2f42" style="stroke: var(--color4, #2e2f42)" stroke-linejoin="round" stroke-linecap="round" stroke-miterlimit="4" stroke-width="4.3636" d="M1.961 29.154h42.965M1.961 15.615h42.965M1.961 2.077h42.965"></path>
</symbol>
<symbol id="icon-close-first" viewBox="0 0 32 32">
<path fill="#e7e9fc" style="fill: var(--color1, #e7e9fc)" d="M32 16c0 8.837-7.163 16-16 16s-16-7.163-16-16c0-8.837 7.163-16 16-16s16 7.163 16 16z"></path>
<path fill="none" stroke="#000" style="stroke: var(--color2, #000)" stroke-linejoin="miter" stroke-linecap="butt" stroke-miterlimit="4" stroke-width="1.3333" d="M31.333 16c0 8.468-6.865 15.333-15.333 15.333s-15.333-6.865-15.333-15.333c0-8.468 6.865-15.333 15.333-15.333s15.333 6.865 15.333 15.333z"></path>
<path fill="#2e2f42" style="fill: var(--color3, #2e2f42)" d="M21.333 11.741l-1.074-1.074-4.259 4.259-4.259-4.259-1.074 1.074 4.259 4.259-4.259 4.259 1.074 1.074 4.259-4.259 4.259 4.259 1.074-1.074-4.259-4.259 4.259-4.259z"></path>
</symbol>

<symbol id="icon-close" viewBox="0 0 32 32">
<path d="M19.325 16.011l7.325-7.321c0.92-0.92 0.92-2.404 0-3.323s-2.404-0.92-3.323 0l-7.325 7.321-7.323-7.323c-0.92-0.92-2.404-0.92-3.323 0s-0.92 2.404 0 3.323l7.325 7.321-7.325 7.321c-0.92 0.92-0.92 2.404 0 3.323 0.921 0.92 2.411 0.92 3.323 0l7.325-7.321 7.325 7.321c0.92 0.92 2.404 0.92 3.323 0 0.913-0.92 0.913-2.404-0.009-3.325l-7.318-7.318z"></path>
</symbol>


</defs>
</svg>
